# xmcd
# 
# Track frame offsets:
#     150
#     14673
#     26843
#     42277
#     55094
#     71636
#     83301
#     94503
#     106127
#     118985
#     130934
#     145245
# 
# Disc length: 2101
# 
# Revision: 1
# Processed by: cddbd v1.5.2PL0 Copyright (c) Steve Scherf et al.
# Submitted via: fre:ac v1.1beta1pre4
# 
DISCID=9e08330c
DTITLE=Steep Canyon Rangers - Deep In The Shade
DYEAR=2009
DGENRE=Bluegrass
TTITLE0=Have Mercy
TTITLE1=I Thought That She Loved Me
TTITLE2=The Mountain's Gonna Sing
TTITLE3=Turn Up The Bottle
TTITLE4=Nowhere To Lay Low
TTITLE5=Sylvie
TTITLE6=There Ain't No Easy Street
TTITLE7=Mourning Dove
TTITLE8=I Must Be Somebody Else You've Known
TTITLE9=Shades Of Gray
TTITLE10=Heartbreak Is Real
TTITLE11=Hollerin' House
EXTD=
EXTT0=
EXTT1=
EXTT2=
EXTT3=
EXTT4=
EXTT5=
EXTT6=
EXTT7=
EXTT8=
EXTT9=
EXTT10=
EXTT11=
PLAYORDER=
